<svg xmlns="http://www.w3.org/2000/svg" version="1.1" xmlns:xlink="http://www.w3.org/1999/xlink" width="512" height="512" x="0" y="0" viewBox="0 0 512.001 512.001" style="enable-background:new 0 0 512 512" xml:space="preserve" class=""><g><path d="m461.933 416.009-77.662-84.285 7.358-15.464a36.631 36.631 0 0 0 .177-31.189l-3.092-6.691a7.5 7.5 0 1 0-13.617 6.292l3.092 6.69a21.669 21.669 0 0 1-.104 18.453l-9.536 20.041c-.362 1.629-2.169 3.364 1.257 8.305l81.097 88.013a7.48 7.48 0 0 0 5.518 2.418 7.474 7.474 0 0 0 5.08-1.984 7.502 7.502 0 0 0 .432-10.599z" fill="#ffffff" opacity="1" data-original="#000000" class=""></path><path d="m311.059 410.811 25.177-63.845 4.806 5.349a7.48 7.48 0 0 0 5.582 2.488 7.499 7.499 0 0 0 5.576-12.512l-5.46-6.077a53.414 53.414 0 0 1-13.39-40.929l1.311-13.099c.805-8.049-3.572-15.773-10.891-19.219l-44.11-20.774a16.822 16.822 0 0 1-8.637-9.381c-1.009-2.703-.635-5.626 1.026-8.021 1.7-2.451 4.381-3.856 7.354-3.856h40.354c14.06-.067 28.864 7.999 36.009 21.896l4.86 10.521a7.5 7.5 0 1 0 13.617-6.29l-4.929-10.669a7.286 7.286 0 0 0-.137-.281c-4.627-9.009-11.455-16.36-19.637-21.554-1.039-12.076-7.9-22.907-18.658-28.983l-29.986-16.937a90.086 90.086 0 0 1-28.285-25.006l-3.622-4.896a7.498 7.498 0 0 0-10.49-1.568 7.5 7.5 0 0 0-1.568 10.49l3.623 4.896c8.879 11.998 19.97 21.804 32.966 29.144l29.986 16.937a21.974 21.974 0 0 1 8.53 8.664 56.024 56.024 0 0 0-12.278-1.364h-40.354a23.963 23.963 0 0 0-19.677 10.304c-4.439 6.397-5.469 14.555-2.755 21.821 2.931 7.847 8.719 14.134 16.298 17.703l44.11 20.774a4.147 4.147 0 0 1 2.355 4.157l-1.311 13.098c-1.337 13.37 1.35 26.754 7.481 38.478l-30.748 77.974c-2.557 6.479-9.908 9.668-16.384 7.116-5.198-2.098-9.945-9.026-7.106-16.406l9.101-23.307a7.5 7.5 0 0 0-4.259-9.714c-3.855-1.507-8.207.401-9.714 4.258l-9.091 23.283c-2.557 6.479-9.909 9.669-16.384 7.116a12.548 12.548 0 0 1-6.95-6.717 12.543 12.543 0 0 1-.161-9.677l.005-.012 9.101-23.307a7.5 7.5 0 0 0-4.259-9.714c-3.854-1.507-8.207.401-9.714 4.258l-9.092 23.284a12.544 12.544 0 0 1-6.717 6.95 12.55 12.55 0 0 1-9.665.165c-6.479-2.555-9.671-9.904-7.116-16.383l.004-.011.005-.012 9.101-23.306a7.5 7.5 0 0 0-7.139-10.226 27.458 27.458 0 0 0 3.494-13.524c-.029-7.931-3.417-15.075-8.804-20.099 5.351-5.063 8.688-12.231 8.66-20.161-.029-7.925-3.413-15.065-8.793-20.088a27.636 27.636 0 0 0 6.513-9.407 7.5 7.5 0 1 0-13.835-5.793 12.615 12.615 0 0 1-11.613 7.757l-23.51.084h-.046c-6.943 0-12.604-5.636-12.63-12.584-.025-6.964 5.62-12.65 12.585-12.675l23.512-.084c2.262.093 3.953.065 6.929-2.402a7.5 7.5 0 0 0-.492-10.595L60.635 108.916a7.502 7.502 0 0 0-10.104 11.088l40.346 36.763a27.557 27.557 0 0 0-8.746 11.689c-5.588 14.172 1.396 30.25 15.568 35.839l39.609 15.62c-8.466 4.753-14.187 13.829-14.15 24.207.029 7.926 3.413 15.067 8.796 20.09-10.714 9.663-11.912 29.472.145 40.277-5.346 5.062-8.68 12.226-8.652 20.152.026 7.38 2.926 14.309 8.163 19.508a27.436 27.436 0 0 0 13.444 7.36c-4.658 12.535 1.39 30.266 15.859 35.496 6.115 2.308 14.148 2.933 21.935-.728 2.724 6.84 8.145 12.589 15.518 15.497 6.111 2.307 14.138 2.933 21.923-.722 5.509 13.913 22.275 21.767 37.45 14.761 6.235 17.286 31.327 23.748 45.299 9.219l64.005 84.012a7.487 7.487 0 0 0 5.972 2.956c1.584 0 3.182-.5 4.539-1.535a7.5 7.5 0 0 0 1.421-10.511zM96.087 173.959a12.551 12.551 0 0 1 6.263-6.739l44.086 40.171-43.232-17.049c-6.48-2.556-9.672-9.905-7.117-16.383zm54.844 122.953a12.544 12.544 0 0 1-8.897-3.667 12.538 12.538 0 0 1-3.73-8.917c-.013-3.374 1.29-6.55 3.667-8.944s5.544-3.719 8.918-3.731l23.51-.084h.046c6.943 0 12.604 5.636 12.63 12.584.025 6.964-5.62 12.65-12.585 12.675l-23.511.084h-.048zm-12.484 27.676c-.024-6.964 5.621-12.65 12.585-12.675l23.512-.084h.046c6.942 0 12.604 5.636 12.629 12.584.025 6.964-5.62 12.65-12.584 12.675l-23.513.084h-.047a12.543 12.543 0 0 1-8.896-3.667 12.544 12.544 0 0 1-3.732-8.917zm37.635 48.299a12.546 12.546 0 0 1-9.665.165 12.548 12.548 0 0 1-6.951-6.718c-1.904-3.566-.169-8.945.618-14.194l14.605-.052a27.466 27.466 0 0 0 15.373-4.75l-7.262 18.598a12.558 12.558 0 0 1-6.718 6.951zM235.905 119.243a7.487 7.487 0 0 0 6.034 3.039c1.55 0 3.114-.479 4.455-1.472a7.5 7.5 0 0 0 1.568-10.49L168.573 3.039a7.498 7.498 0 0 0-10.489-1.567 7.5 7.5 0 0 0-1.568 10.49z" fill="#ffffff" opacity="1" data-original="#000000" class=""></path></g></svg>
