<svg xmlns="http://www.w3.org/2000/svg" version="1.1" xmlns:xlink="http://www.w3.org/1999/xlink" width="512" height="512" x="0" y="0" viewBox="0 0 511.998 511.998" style="enable-background:new 0 0 512 512" xml:space="preserve" class=""><g><path d="M492.102 394.85c-26.169 22.35-55.207 40.688-86.128 54.688l-27.717-79.712h39.369v-15.023c0-47.275-38.461-85.737-85.737-85.737H193.565l-9.075-30.051h133.117v-30.047H175.415L128.422 53.36l-.25-.828-.345-.795c-9.243-21.355-26.301-37.699-48.033-46.017C58.062-2.597 34.451-1.823 13.31 7.902L1.524 13.323l104.497 356.501h30.503l-27.826 80.92a363.38 363.38 0 0 1-88.803-55.896L.382 417.697c71.202 60.811 161.982 94.301 255.617 94.301s184.415-33.49 255.617-94.301l-19.514-22.847zM38.071 31.187c10.265-2.106 20.936-1.254 30.982 2.593 13.862 5.306 24.796 15.636 30.87 29.143l44.104 146.044H90.182L38.071 31.187zM98.99 239.014h54.111l9.075 30.051h-54.378l-8.808-30.051zm29.535 100.765-11.92-40.666H331.89c25.505 0 47.058 17.232 53.632 40.666H128.525zm127.473 142.172c-40.91.001-81.227-6.931-119.322-20.17l31.621-91.956h178.145l31.633 90.974c-38.904 13.872-80.178 21.152-122.077 21.152z" fill="#ffffff" opacity="1" data-original="#000000" class=""></path></g></svg>

